<?xml version="1.0" encoding="utf-8"?>
<!-- Generator: Adobe Illustrator 24.0.2, SVG Export Plug-In . SVG Version: 6.00 Build 0)  -->
<svg version="1.1" xmlns="http://www.w3.org/2000/svg" xmlns:xlink="http://www.w3.org/1999/xlink" x="0px" y="0px"
	 viewBox="0 0 280.2 280.2" style="enable-background:new 0 0 280.2 280.2;" xml:space="preserve">
<style type="text/css">
	.st0{fill:#FFFFFF;}
</style>
<g id="Layer_2">
	<g>
		<path d="M280.2,140.2c0.2,76.5-62.3,139.8-138.3,140C63.1,280.4,0.2,218.6,0,140.8S62.2,0.2,139.6,0
			C217.6-0.1,280,62.1,280.2,140.2z"/>
	</g>
</g>
<g id="Layer_3">
	<path class="st0" d="M54.1,50.2c3.6,2.8,6.4,5.5,9.7,7.3c1.6,0.9,4.9,1,6.1,0c10.6-8.8,22.3-15.5,35.2-20.4
		c1.6-0.6,3.3-3.4,3.3-5.2c0.1-3.9-0.9-7.8-1.6-12.2C86.6,25.5,69.4,35.5,54.1,50.2z"/>
	<path class="st0" d="M226.2,226.2c-3.5-2.7-6.4-5.6-9.9-7.4c-1.7-0.9-5.1-0.6-6.5,0.5c-10.4,8.4-21.8,15.1-34.4,19.8
		c-1.7,0.6-3.6,3.3-3.7,5c-0.1,4,0.9,8.1,1.6,12.6C193.7,250.8,210.8,240.9,226.2,226.2z"/>
	<path class="st0" d="M20.8,108.1c-5,20.2-5.1,40.1,0.2,60.5c3.5-1.4,6.4-2.7,9.4-3.7c4.3-1.4,5.1-4,4.8-8.4
		c-0.7-9.9-1.4-19.9-0.9-29.8c0.6-13.9,1.1-13.9-12.2-18.6C21.8,108.1,21.7,108.2,20.8,108.1z"/>
	<path class="st0" d="M106.9,256.7c0.6-4.2,1-7.8,1.6-11.4c0.6-3.5-0.9-5.3-4-6.4c-12.5-4.5-23.7-11.1-34-19.4
		c-1.5-1.2-4.9-1.6-6.5-0.8c-3.6,1.9-6.6,4.8-10,7.5C69.4,240.9,86.6,250.9,106.9,256.7z"/>
	<path class="st0" d="M259.2,107.7c-3.7,1.5-7,3-10.4,4.2c-3.3,1.2-4.3,3.3-3.7,6.6c2.5,13.1,2.4,26.1,0.1,39.3
		c-0.3,1.7,0.3,4.6,1.5,5.3c3.9,2.3,8.2,3.8,12.5,5.6C264.5,150.2,264.5,126,259.2,107.7z"/>
	<path class="st0" d="M226,50c-15.1-14.6-32.4-24.5-52.7-30.4c-0.5,3.7-0.7,7.1-1.5,10.2c-1.1,4.6,1.1,6.3,5,8.2
		c8.8,4.2,17.7,8.4,25.8,13.8C214.7,59.8,214.5,60.2,226,50z"/>
	<path class="st0" d="M237.3,140.1c0-53.8-43.4-97.2-97.2-97.2c-53.7,0-97.2,43.5-97.2,97.2c0,53.8,43.5,97.2,97.2,97.2
		C194,237.3,237.4,193.9,237.3,140.1z M139.4,220c-44-0.1-79.6-35.8-79.5-80c0-44.3,35.9-79.8,80.4-79.7c44,0.2,79.5,36.1,79.3,80.2
		C219.4,184.7,183.7,220,139.4,220z"/>
</g>
</svg>
